<?xml version="1.0" encoding="utf-8"?>
<!-- Generator: Adobe Illustrator 19.0.0, SVG Export Plug-In . SVG Version: 6.00 Build 0)  -->
<svg version="1.1" id="Capa_1" xmlns="http://www.w3.org/2000/svg" xmlns:xlink="http://www.w3.org/1999/xlink" x="0px" y="0px"
	 viewBox="233 156 1078 481" style="enable-background:new 233 156 1078 481;" xml:space="preserve">
<style type="text/css">
	.st0{fill:#1C1C1E;}
	.st1{fill:#475AE2;}
</style>
<g>
	<g>
		<path class="st0" d="M304.7,621.4l-0.1-41.6l-20.4,34.3H277l-20.3-33.4v40.7h-15v-69.3h13.3l25.9,43.1l25.5-43.1h13.2l0.2,69.3
			H304.7z"/>
		<path class="st0" d="M399.7,608.5v12.9h-53.7v-69.3h52.4V565H362v15h32.2v12.5H362v16H399.7z"/>
		<path class="st0" d="M486,552.1v69.3h-13.2l-34.6-42.1v42.1h-15.8v-69.3h13.3l34.5,42.1v-42.1H486z"/>
		<path class="st0" d="M512.3,552.1h31.5c7.5,0,14.2,1.4,19.9,4.3c5.8,2.9,10.3,6.9,13.5,12.1c3.2,5.2,4.8,11.3,4.8,18.2
			s-1.6,13-4.8,18.2c-3.2,5.2-7.7,9.3-13.5,12.1c-5.8,2.9-12.4,4.3-19.9,4.3h-31.5V552.1z M543,608.2c6.9,0,12.5-1.9,16.6-5.8
			c4.1-3.9,6.2-9.1,6.2-15.7s-2.1-11.8-6.2-15.7c-4.1-3.9-9.7-5.8-16.6-5.8h-14.6v43H543z"/>
		<path class="st0" d="M618.1,617.9c-5.8-3.1-10.3-7.4-13.6-12.8c-3.3-5.4-4.9-11.6-4.9-18.4c0-6.8,1.6-12.9,4.9-18.4
			c3.3-5.4,7.8-9.7,13.6-12.8c5.8-3.1,12.3-4.7,19.5-4.7c7.2,0,13.7,1.6,19.4,4.7c5.7,3.1,10.3,7.4,13.6,12.8c3.3,5.4,5,11.6,5,18.4
			c0,6.8-1.7,12.9-5,18.4c-3.3,5.4-7.8,9.7-13.6,12.8c-5.7,3.1-12.2,4.7-19.4,4.7C630.3,622.6,623.9,621,618.1,617.9z M648.6,606.1
			c3.3-1.9,5.9-4.5,7.8-7.9c1.9-3.4,2.8-7.2,2.8-11.5c0-4.3-0.9-8.1-2.8-11.5c-1.9-3.4-4.5-6-7.8-7.9c-3.3-1.9-7-2.8-11.1-2.8
			c-4.1,0-7.8,0.9-11.1,2.8c-3.3,1.9-5.9,4.5-7.8,7.9c-1.9,3.4-2.8,7.2-2.8,11.5c0,4.3,0.9,8.1,2.8,11.5c1.9,3.4,4.5,6,7.8,7.9
			c3.3,1.9,7,2.8,11.1,2.8C641.6,608.9,645.3,608,648.6,606.1z"/>
		<path class="st0" d="M752.9,608.3v13.1h-60.6V611l38-45.8h-37.2v-13.1h58.3v10.4l-37.9,45.8H752.9z"/>
		<path class="st0" d="M818.7,606.5h-32.2l-6.1,14.9h-16.4l30.9-69.3h15.8l31,69.3h-16.8L818.7,606.5z M813.6,594.4l-11-26.5
			l-11,26.5H813.6z"/>
	</g>
	<g>
		<g>
			<path class="st1" d="M449.8,322.6l-15.4-24.1l-17.3,24.1h-50.4l42.6-55.8L367.9,210h52.5l16.1,23.9l16.9-23.9h48.8l-41.4,54.8
				l42.4,57.9H449.8z"/>
			<path class="st1" d="M614,215.1c8.3,4.7,14.9,11.6,19.8,20.5c4.9,8.9,7.3,19.2,7.3,30.9c0,11.7-2.4,21.9-7.3,30.8
				c-4.9,8.9-11.5,15.6-19.8,20.4c-8.3,4.7-17.4,7.1-27.3,7.1c-12.5,0-22-3.2-28.6-9.7v47.6h-46.5V210h44.3v9.3
				c6.7-7.5,17-11.3,30.9-11.3C596.6,208,605.7,210.3,614,215.1z M588.8,282.7c3.4-3.8,5.1-9.3,5.1-16.3c0-7-1.7-12.5-5.1-16.4
				c-3.4-3.9-7.8-5.9-13.2-5.9c-5.4,0-9.7,2-13.2,5.9c-3.4,3.9-5.1,9.4-5.1,16.4c0,7,1.7,12.4,5.1,16.3c3.4,3.8,7.8,5.8,13.2,5.8
				C581,288.5,585.3,286.5,588.8,282.7z"/>
			<path class="st1" d="M681.5,317.2c-10-5-17.7-11.9-23.4-20.8c-5.6-8.9-8.4-18.9-8.4-30.2c0-11.3,2.8-21.3,8.4-30.2
				c5.6-8.9,13.4-15.8,23.4-20.7c10-4.9,21.2-7.4,33.7-7.4c12.6,0,23.9,2.5,33.9,7.4c10,4.9,17.7,11.8,23.3,20.7
				c5.6,8.9,8.3,18.9,8.3,30.2c0,11.3-2.8,21.3-8.3,30.2c-5.6,8.9-13.3,15.8-23.3,20.8c-10,5-21.2,7.5-33.9,7.5
				C702.7,324.7,691.5,322.2,681.5,317.2z M728.4,282.6c3.4-3.9,5.1-9.4,5.1-16.4c0-7-1.7-12.4-5.1-16.3c-3.4-3.8-7.8-5.8-13.2-5.8
				s-9.7,1.9-13.2,5.8c-3.4,3.8-5.1,9.3-5.1,16.3c0,7,1.7,12.5,5.1,16.4c3.4,3.9,7.8,5.9,13.2,5.9S724.9,286.5,728.4,282.6z"/>
			<path class="st1" d="M361.5,458.7v36.6H241.6V342.8h117.2v36.6h-69.4v22.1h60.9v35h-60.9v22.1H361.5z"/>
			<path class="st1" d="M361.5,286v36.6H241.6V170.1h117.2v36.6h-69.4v22.1h60.9v35h-60.9V286H361.5z"/>
			<path class="st1" d="M495.1,342.6v152.8h-44.3v-9.3c-6.7,7.5-17,11.3-30.9,11.3c-9.9,0-19-2.4-27.3-7.1
				c-8.3-4.7-14.9-11.6-19.8-20.5c-4.9-8.9-7.3-19.2-7.3-30.9c0-11.7,2.4-21.9,7.3-30.8c4.9-8.9,11.5-15.6,19.8-20.4
				c8.3-4.7,17.4-7.1,27.3-7.1c12.5,0,22,3.2,28.6,9.7v-47.8H495.1z M444.2,455.3c3.4-3.9,5.1-9.4,5.1-16.4c0-7-1.7-12.4-5.1-16.3
				c-3.4-3.8-7.8-5.8-13.2-5.8c-5.4,0-9.7,1.9-13.2,5.8c-3.4,3.8-5.1,9.3-5.1,16.3c0,7,1.7,12.5,5.1,16.4c3.4,3.9,7.8,5.9,13.2,5.9
				C436.4,461.2,440.8,459.2,444.2,455.3z"/>
			<path class="st1" d="M634.7,382.7v112.6h-44.3v-10.7c-4.1,4.3-8.9,7.4-14.4,9.6c-5.5,2.1-11.3,3.2-17.5,3.2
				c-14.3,0-25.7-4.4-34.4-13.1c-8.6-8.7-13-21.9-13-39.4v-62.2h46.5v54.2c0,7.7,1.2,13.2,3.7,16.5c2.5,3.3,6.1,4.9,10.9,4.9
				c4.5,0,8.3-1.8,11.3-5.5c3-3.6,4.5-9.4,4.5-17.2v-52.9H634.7z"/>
			<path class="st1" d="M677.4,490c-10.1-4.9-18-11.9-23.7-20.8c-5.7-8.9-8.5-19-8.5-30.3c0-11.3,2.8-21.3,8.5-30.2
				c5.7-8.9,13.6-15.8,23.7-20.7c10.1-4.9,21.5-7.4,34.3-7.4c13.7,0,25.5,3,35.2,8.9c9.7,5.9,16.5,14.1,20.2,24.5l-36,17.7
				c-4.4-9.9-10.9-14.8-19.6-14.8c-5.5,0-10.1,1.9-13.7,5.8c-3.6,3.8-5.5,9.3-5.5,16.3c0,7.1,1.8,12.6,5.5,16.5
				c3.6,3.8,8.2,5.8,13.7,5.8c8.6,0,15.2-4.9,19.6-14.8l36,17.7c-3.7,10.4-10.4,18.6-20.2,24.5c-9.7,5.9-21.5,8.9-35.2,8.9
				C698.9,497.4,687.5,494.9,677.4,490z"/>
			<path class="st1" d="M874.6,393.9c10.4,8.9,15.6,22.5,15.6,40.9v60.5H847v-14.8c-5.4,11.3-16,16.9-31.9,16.9
				c-8.9,0-16.5-1.5-22.8-4.6c-6.2-3.1-11-7.3-14.2-12.6c-3.2-5.3-4.8-11.2-4.8-17.8c0-11.1,4.3-19.6,12.8-25.3
				c8.5-5.8,21.4-8.6,38.7-8.6h18.7c-1.5-8.8-8.6-13.2-21.2-13.2c-5.1,0-10.2,0.8-15.4,2.4c-5.2,1.6-9.7,3.7-13.4,6.5l-14.8-30.7
				c6.5-4,14.2-7.1,23.4-9.4c9.1-2.3,18.2-3.4,27.3-3.4C849,380.7,864.1,385.1,874.6,393.9z M837.9,466.7c2.6-1.8,4.5-4.5,5.8-8
				v-7.8h-11.5c-9.5,0-14.2,3.2-14.2,9.5c0,2.6,1,4.8,3,6.5c2,1.7,4.7,2.6,8.1,2.6C832.4,469.4,835.3,468.5,837.9,466.7z"/>
			<path class="st1" d="M989.2,491.4c-7,4-16.5,6-28.6,6c-15.8,0-27.9-3.8-36.4-11.4c-8.5-7.6-12.8-19-12.8-34.3v-28.8H896v-34h15.4
				v-31.5h46.5v31.5H981v34h-23.1v28.4c0,3.4,0.9,6.1,2.7,8c1.8,1.9,4.1,2.9,7,2.9c4,0,7.5-1,10.5-3.1L989.2,491.4z"/>
			<path class="st1" d="M999.8,367c-5.1-4.5-7.7-10.1-7.7-17c0-6.9,2.6-12.5,7.7-17c5.1-4.5,11.9-6.7,20.3-6.7
				c8.5,0,15.3,2.1,20.4,6.4c5.1,4.3,7.6,9.7,7.6,16.5c0,7.1-2.5,13-7.6,17.6c-5.1,4.6-11.9,6.9-20.4,6.9
				C1011.7,373.7,1005,371.4,999.8,367z M996.9,382.7h46.5v112.6h-46.5V382.7z"/>
			<path class="st1" d="M1185.2,382.7l-45.3,112.6h-48.2l-45.3-112.6h47.8l22.6,60.3l24.3-60.3H1185.2z"/>
			<path class="st1" d="M1284.1,393.9c10.4,8.9,15.6,22.5,15.6,40.9v60.5h-43.2v-14.8c-5.4,11.3-16,16.9-31.9,16.9
				c-8.9,0-16.5-1.5-22.8-4.6c-6.2-3.1-11-7.3-14.2-12.6c-3.2-5.3-4.8-11.2-4.8-17.8c0-11.1,4.3-19.6,12.8-25.3
				c8.5-5.8,21.4-8.6,38.7-8.6h18.7c-1.5-8.8-8.6-13.2-21.2-13.2c-5.1,0-10.2,0.8-15.4,2.4c-5.2,1.6-9.7,3.7-13.4,6.5l-14.8-30.7
				c6.5-4,14.2-7.1,23.4-9.4c9.1-2.3,18.2-3.4,27.3-3.4C1258.5,380.7,1273.6,385.1,1284.1,393.9z M1247.4,466.7
				c2.6-1.8,4.5-4.5,5.8-8v-7.8h-11.5c-9.5,0-14.2,3.2-14.2,9.5c0,2.6,1,4.8,3,6.5c2,1.7,4.7,2.6,8.1,2.6
				C1241.9,469.4,1244.8,468.5,1247.4,466.7z"/>
		</g>
	</g>
</g>
</svg>
